<?xml version="1.0" encoding="UTF-8" standalone="no"?>
<!-- Created with Inkscape (http://www.inkscape.org/) -->

<svg
   xmlns:dc="http://purl.org/dc/elements/1.1/"
   xmlns:cc="http://creativecommons.org/ns#"
   xmlns:rdf="http://www.w3.org/1999/02/22-rdf-syntax-ns#"
   xmlns:svg="http://www.w3.org/2000/svg"
   xmlns="http://www.w3.org/2000/svg"
   xmlns:sodipodi="http://sodipodi.sourceforge.net/DTD/sodipodi-0.dtd"
   xmlns:inkscape="http://www.inkscape.org/namespaces/inkscape"
   width="210mm"
   height="297mm"
   viewBox="0 0 210 297"
   version="1.1"
   id="svg8"
   sodipodi:docname="logo-basic-2.svg"
   inkscape:version="0.92.4 (5da689c313, 2019-01-14)">
  <defs
     id="defs2">
    <inkscape:perspective
       sodipodi:type="inkscape:persp3d"
       inkscape:vp_x="0 : 148.5 : 1"
       inkscape:vp_y="0 : 1000 : 0"
       inkscape:vp_z="210 : 148.5 : 1"
       inkscape:persp3d-origin="105 : 99 : 1"
       id="perspective4890" />
  </defs>
  <sodipodi:namedview
     id="base"
     pagecolor="#ffffff"
     bordercolor="#666666"
     borderopacity="1.0"
     inkscape:pageopacity="0.0"
     inkscape:pageshadow="2"
     inkscape:zoom="1.4"
     inkscape:cx="469.82254"
     inkscape:cy="551.52423"
     inkscape:document-units="mm"
     inkscape:current-layer="layer1"
     showgrid="false"
     inkscape:window-width="1600"
     inkscape:window-height="847"
     inkscape:window-x="1272"
     inkscape:window-y="-8"
     inkscape:window-maximized="1"
     inkscape:snap-others="false"
     inkscape:object-nodes="false" />
  <metadata
     id="metadata5">
    <rdf:RDF>
      <cc:Work
         rdf:about="">
        <dc:format>image/svg+xml</dc:format>
        <dc:type
           rdf:resource="http://purl.org/dc/dcmitype/StillImage" />
      </cc:Work>
    </rdf:RDF>
  </metadata>
  <g
     inkscape:label="Layer 1"
     inkscape:groupmode="layer"
     id="layer1">
    <text
       xml:space="preserve"
       style="font-style:normal;font-variant:normal;font-weight:normal;font-stretch:normal;font-size:10.58333302px;line-height:1.25;font-family:'Freestyle Script';-inkscape-font-specification:'Freestyle Script, Normal';font-variant-ligatures:normal;font-variant-caps:normal;font-variant-numeric:normal;font-feature-settings:normal;text-align:start;letter-spacing:0px;word-spacing:0px;writing-mode:lr-tb;text-anchor:start;fill:#f6c53c;fill-opacity:1;stroke:none;stroke-width:0.26458332"
       x="70.792084"
       y="135.89436"
       id="text4749"><tspan
         sodipodi:role="line"
         id="tspan4747"
         x="70.792084"
         y="135.89436"
         style="font-style:normal;font-variant:normal;font-weight:normal;font-stretch:normal;font-size:10.58333302px;font-family:'Freestyle Script';-inkscape-font-specification:'Freestyle Script, Normal';font-variant-ligatures:normal;font-variant-caps:normal;font-variant-numeric:normal;font-feature-settings:normal;text-align:start;writing-mode:lr-tb;text-anchor:start;fill:#f6c53c;fill-opacity:1;stroke-width:0.26458332">Jeffreys Bay</tspan></text>
    <g
       id="g4793"
       style="stroke:none;stroke-opacity:1;fill:#eb653f;fill-opacity:1">
      <path
         d="m 70.70423,152.07535 c 0,0.17031 0.119217,0.30656 0.272496,0.30656 h 2.980427 c 0.187341,0 0.289527,-0.10218 0.289527,-0.23843 v -5.39883 c 0,-0.20437 0.08516,-0.20437 0.919675,-0.20437 1.634977,0 3.048551,-1.56686 3.048551,-3.15074 0,-3.21886 -2.52059,-3.78089 -3.304017,-3.78089 h -3.968225 c -0.153279,0 -0.238434,0.11922 -0.238434,0.28953 z m 3.54245,-9.11159 c 0,-0.0511 0.01703,-0.11921 0.05109,-0.13625 0.03406,-0.017 0.06812,-0.017 0.119217,-0.017 0.221403,0 0.357651,0.18734 0.357651,0.45984 v 0.69827 c 0,0.34062 -0.102186,0.56203 -0.357651,0.56203 -0.119217,0 -0.17031,-0.11922 -0.17031,-0.18735 z"
         style="font-style:normal;font-variant:normal;font-weight:bold;font-stretch:normal;font-size:17.03101158px;line-height:1.25;font-family:'Poplar Std';-inkscape-font-specification:'Poplar Std, Bold';font-variant-ligatures:normal;font-variant-caps:normal;font-variant-numeric:normal;font-feature-settings:normal;text-align:start;letter-spacing:0px;word-spacing:0px;writing-mode:lr-tb;text-anchor:start;fill:#eb653f;fill-opacity:1;stroke:none;stroke-width:0.42577529;stroke-opacity:1"
         id="path4755"
         inkscape:connector-curvature="0" />
      <path
         d="m 82.026393,148.85649 c -0.05109,0 -0.102186,-0.0511 -0.102186,-0.11921 v -8.94129 c 0,-0.10218 -0.06812,-0.18734 -0.17031,-0.18734 h -2.878241 c -0.119217,0 -0.221403,0.13625 -0.221403,0.23844 v 12.31342 c 0,0.11922 0.08516,0.2214 0.187341,0.2214 h 6.097102 c 0.102186,0 0.187341,-0.0851 0.187341,-0.18734 v -3.16777 c 0,-0.0851 -0.06812,-0.17031 -0.187341,-0.17031 z"
         style="font-style:normal;font-variant:normal;font-weight:bold;font-stretch:normal;font-size:17.03101158px;line-height:1.25;font-family:'Poplar Std';-inkscape-font-specification:'Poplar Std, Bold';font-variant-ligatures:normal;font-variant-caps:normal;font-variant-numeric:normal;font-feature-settings:normal;text-align:start;letter-spacing:0px;word-spacing:0px;writing-mode:lr-tb;text-anchor:start;fill:#eb653f;fill-opacity:1;stroke:none;stroke-width:0.42577529;stroke-opacity:1"
         id="path4757"
         inkscape:connector-curvature="0" />
      <path
         d="m 85.637234,148.5329 c 0,2.63981 1.669039,3.90011 3.54245,3.90011 1.873412,0 3.542451,-1.27733 3.542451,-3.90011 v -5.04118 c 0,-2.6398 -1.652008,-3.91713 -3.542451,-3.91713 -1.890442,0 -3.54245,1.27733 -3.54245,3.91713 z m 3.269954,-4.99008 c 0,-0.23844 0.08516,-0.45984 0.272496,-0.45984 0.187342,0 0.272497,0.23843 0.272497,0.45984 v 4.93899 c 0,0.25547 -0.08516,0.44281 -0.272497,0.44281 -0.187341,0 -0.272496,-0.18734 -0.272496,-0.44281 z"
         style="font-style:normal;font-variant:normal;font-weight:bold;font-stretch:normal;font-size:17.03101158px;line-height:1.25;font-family:'Poplar Std';-inkscape-font-specification:'Poplar Std, Bold';font-variant-ligatures:normal;font-variant-caps:normal;font-variant-numeric:normal;font-feature-settings:normal;text-align:start;letter-spacing:0px;word-spacing:0px;writing-mode:lr-tb;text-anchor:start;fill:#eb653f;fill-opacity:1;stroke:none;stroke-width:0.42577529;stroke-opacity:1"
         id="path4759"
         inkscape:connector-curvature="0" />
      <path
         d="m 98.484736,152.38191 c 0.136248,0 0.238434,-0.10218 0.238434,-0.2214 v -8.87316 c 0,-0.15328 0.08516,-0.23843 0.204373,-0.23843 h 1.703097 c 0.13625,0 0.23844,-0.10219 0.23844,-0.23844 v -2.99745 c 0,-0.13625 -0.10219,-0.20438 -0.22141,-0.20438 h -7.289268 c -0.102186,0 -0.153279,0.0681 -0.153279,0.17031 v 3.03152 c 0,0.10219 0.119217,0.23844 0.221403,0.23844 h 1.703101 c 0.119217,0 0.221403,0.0851 0.221403,0.20437 v 8.89019 c 0,0.13625 0.119217,0.23843 0.238434,0.23843 z"
         style="font-style:normal;font-variant:normal;font-weight:bold;font-stretch:normal;font-size:17.03101158px;line-height:1.25;font-family:'Poplar Std';-inkscape-font-specification:'Poplar Std, Bold';font-variant-ligatures:normal;font-variant-caps:normal;font-variant-numeric:normal;font-feature-settings:normal;text-align:start;letter-spacing:0px;word-spacing:0px;writing-mode:lr-tb;text-anchor:start;fill:#eb653f;fill-opacity:1;stroke:none;stroke-width:0.42577529;stroke-opacity:1"
         id="path4761"
         inkscape:connector-curvature="0" />
    </g>
    <g
       id="g4804"
       transform="translate(-20.178849,4.9444863)"
       style="fill:#eb653f;fill-opacity:1">
      <path
         d="m 129.61423,152.07535 c 0,0.17031 0.11922,0.30656 0.2725,0.30656 h 2.98043 c 0.18734,0 0.28952,-0.10218 0.28952,-0.23843 v -5.39883 c 0,-0.20437 0.0852,-0.20437 0.91968,-0.20437 1.63498,0 3.04855,-1.56686 3.04855,-3.15074 0,-3.21886 -2.52059,-3.78089 -3.30402,-3.78089 h -3.96822 c -0.15328,0 -0.23844,0.11922 -0.23844,0.28953 z m 3.54245,-9.11159 c 0,-0.0511 0.017,-0.11921 0.0511,-0.13625 0.0341,-0.017 0.0681,-0.017 0.11921,-0.017 0.22141,0 0.35765,0.18734 0.35765,0.45984 v 0.69827 c 0,0.34062 -0.10218,0.56203 -0.35765,0.56203 -0.11921,0 -0.17031,-0.11922 -0.17031,-0.18735 z"
         style="font-style:normal;font-variant:normal;font-weight:bold;font-stretch:normal;font-size:17.03101158px;line-height:1.25;font-family:'Poplar Std';-inkscape-font-specification:'Poplar Std, Bold';font-variant-ligatures:normal;font-variant-caps:normal;font-variant-numeric:normal;font-feature-settings:normal;text-align:start;letter-spacing:0px;word-spacing:0px;writing-mode:lr-tb;text-anchor:start;fill:#eb653f;fill-opacity:1;stroke:none;stroke-width:0.42577529"
         id="path4769"
         inkscape:connector-curvature="0" />
      <path
         d="m 140.93639,148.85649 c -0.0511,0 -0.10218,-0.0511 -0.10218,-0.11921 v -8.94129 c 0,-0.10218 -0.0681,-0.18734 -0.17031,-0.18734 h -2.87824 c -0.11922,0 -0.22141,0.13625 -0.22141,0.23844 v 12.31342 c 0,0.11922 0.0852,0.2214 0.18734,0.2214 h 6.09711 c 0.10218,0 0.18734,-0.0851 0.18734,-0.18734 v -3.16777 c 0,-0.0851 -0.0681,-0.17031 -0.18734,-0.17031 z"
         style="font-style:normal;font-variant:normal;font-weight:bold;font-stretch:normal;font-size:17.03101158px;line-height:1.25;font-family:'Poplar Std';-inkscape-font-specification:'Poplar Std, Bold';font-variant-ligatures:normal;font-variant-caps:normal;font-variant-numeric:normal;font-feature-settings:normal;text-align:start;letter-spacing:0px;word-spacing:0px;writing-mode:lr-tb;text-anchor:start;fill:#eb653f;fill-opacity:1;stroke:none;stroke-width:0.42577529"
         id="path4771"
         inkscape:connector-curvature="0" />
      <path
         d="m 146.79533,139.60865 c -0.10219,0 -0.18734,0.11922 -0.20437,0.20438 l -2.28216,12.27936 c -0.0341,0.17031 0.0511,0.28952 0.20437,0.28952 h 2.81012 c 0.0852,0 0.20437,-0.0681 0.2214,-0.18734 l 0.32359,-2.50356 c 0.017,-0.10218 0.0852,-0.17031 0.15328,-0.17031 h 0.91967 c 0.0852,0 0.15328,0.0511 0.17032,0.13625 l 0.34062,2.55465 c 0.017,0.10219 0.11921,0.17031 0.2214,0.17031 h 2.75902 c 0.18734,0 0.2725,-0.18734 0.23844,-0.37468 l -2.33325,-12.17717 c -0.017,-0.11922 -0.10219,-0.22141 -0.22141,-0.22141 z m 2.04372,8.05567 c 0.017,0.15328 -0.0341,0.15328 -0.57906,0.15328 -0.0851,0 -0.11921,-0.0851 -0.10218,-0.17031 l 0.2214,-1.61795 c 0.0341,-0.27249 0.0681,-0.39171 0.11922,-0.39171 0.0511,0 0.0851,0.15328 0.11922,0.39171 z"
         style="font-style:normal;font-variant:normal;font-weight:bold;font-stretch:normal;font-size:17.03101158px;line-height:1.25;font-family:'Poplar Std';-inkscape-font-specification:'Poplar Std, Bold';font-variant-ligatures:normal;font-variant-caps:normal;font-variant-numeric:normal;font-feature-settings:normal;text-align:start;letter-spacing:0px;word-spacing:0px;writing-mode:lr-tb;text-anchor:start;fill:#eb653f;fill-opacity:1;stroke:none;stroke-width:0.42577529"
         id="path4773"
         inkscape:connector-curvature="0" />
      <path
         d="m 153.03187,152.14348 c 0,0.13625 0.0681,0.23843 0.17031,0.23843 h 2.58872 c 0.11921,0 0.2214,-0.10218 0.2214,-0.2214 v -3.01449 c 0,-0.17031 0.0341,-0.23843 0.0852,-0.23843 0.0511,0 0.11921,0.0681 0.15328,0.23843 l 0.74936,3.06558 c 0.017,0.10219 0.11922,0.17031 0.18734,0.17031 h 3.1848 c 0.11922,0 0.18734,-0.10218 0.18734,-0.2214 v -12.31342 c 0,-0.11922 -0.0851,-0.23844 -0.2214,-0.23844 h -2.55465 c -0.11922,0 -0.20438,0.10219 -0.20438,0.22141 v 3.79791 c 0,0.15328 -0.0511,0.22141 -0.10218,0.22141 -0.0341,0 -0.0852,-0.0681 -0.11922,-0.20438 l -1.02186,-3.83197 c -0.0341,-0.13625 -0.11922,-0.20438 -0.23843,-0.20438 h -2.87824 c -0.10219,0 -0.18735,0.10219 -0.18735,0.22141 z"
         style="font-style:normal;font-variant:normal;font-weight:bold;font-stretch:normal;font-size:17.03101158px;line-height:1.25;font-family:'Poplar Std';-inkscape-font-specification:'Poplar Std, Bold';font-variant-ligatures:normal;font-variant-caps:normal;font-variant-numeric:normal;font-feature-settings:normal;text-align:start;letter-spacing:0px;word-spacing:0px;writing-mode:lr-tb;text-anchor:start;fill:#eb653f;fill-opacity:1;stroke:none;stroke-width:0.42577529"
         id="path4775"
         inkscape:connector-curvature="0" />
    </g>
    <text
       xml:space="preserve"
       style="font-style:normal;font-variant:normal;font-weight:normal;font-stretch:normal;font-size:10.58333302px;line-height:1.25;font-family:'Eras Bold ITC';-inkscape-font-specification:'Eras Bold ITC';letter-spacing:0px;word-spacing:0px;fill:#000000;fill-opacity:1;stroke:none;stroke-width:0.26458332"
       x="100.89424"
       y="151.73901"
       id="text4808"><tspan
         sodipodi:role="line"
         id="tspan4806"
         x="100.89424"
         y="151.73901"
         style="stroke-width:0.26458332">&amp;</tspan></text>
    <path
       style="fill:none;stroke:#000000;stroke-width:2.11666656;stroke-linecap:butt;stroke-linejoin:miter;stroke-miterlimit:4;stroke-dasharray:none;stroke-opacity:1"
       d="m 70.70423,156.26806 h 35.68046"
       id="path4810"
       inkscape:connector-curvature="0" />
    <path
       inkscape:connector-curvature="0"
       id="path4812"
       d="m 109.91207,140.55258 h 30.4687"
       style="fill:none;stroke:#000000;stroke-width:1.95597911;stroke-linecap:butt;stroke-linejoin:miter;stroke-miterlimit:4;stroke-dasharray:none;stroke-opacity:1" />
    <g
       id="g5144">
      <path
         sodipodi:nodetypes="ccccccc"
         inkscape:connector-curvature="0"
         id="path5004"
         d="m 166.54232,143.26352 -6.04697,0.19013 v 6.75115 l 20.0118,0.21256 v -13.64544 l -14.06506,1.04096 v 5.58427"
         style="fill:#eb653f;stroke:#000000;stroke-width:0.26458332;stroke-linecap:butt;stroke-linejoin:miter;stroke-miterlimit:4;stroke-dasharray:none;stroke-opacity:1;fill-opacity:1" />
      <path
         inkscape:connector-curvature="0"
         id="path5122"
         d="m 161.88181,145.24102 -0.0501,4.91108 4.04245,0.0668 0.0334,-5.12823 z"
         style="fill:#073b4c;stroke:none;stroke-width:0.26458332px;stroke-linecap:butt;stroke-linejoin:miter;stroke-opacity:1;fill-opacity:1" />
      <path
         inkscape:connector-curvature="0"
         id="path5006"
         d="m 180.50715,136.77192 v 13.64544 l 8.86529,-0.57634 v -9.54374 l -8.86529,-3.52536"
         style="fill:#fb986d;stroke:#000000;stroke-width:0.26458333;stroke-linecap:butt;stroke-linejoin:miter;stroke-opacity:1;stroke-miterlimit:4;stroke-dasharray:none;fill-opacity:1" />
      <path
         inkscape:connector-curvature="0"
         id="path5076"
         d="m 165.94097,145.09068 v 5.17835 l -4.82756,-0.0334 0.0334,-5.04471 z"
         style="fill:none;stroke:#000000;stroke-width:0.26458332px;stroke-linecap:butt;stroke-linejoin:miter;stroke-opacity:1" />
      <path
         inkscape:connector-curvature="0"
         id="path5078"
         d="m 161.80924,145.17169 -0.0354,5.07905"
         style="fill:none;stroke:#000000;stroke-width:0.26458332px;stroke-linecap:butt;stroke-linejoin:miter;stroke-opacity:1" />
      <path
         inkscape:connector-curvature="0"
         id="path5094"
         d="m 165.04207,137.77947 8.12627,-8.16184 8.65061,7.12088 z"
         style="fill:#eb653f;stroke:#000000;stroke-width:0.26458332px;stroke-linecap:butt;stroke-linejoin:miter;stroke-opacity:1;fill-opacity:1" />
      <path
         sodipodi:nodetypes="cccccc"
         inkscape:connector-curvature="0"
         id="path5100"
         d="m 166.57395,138.15867 0.0209,-0.70616 13.67057,-0.87079 0.10636,0.10606 0.003,0.48637 z"
         style="fill:#eb653f;fill-opacity:1;stroke:none;stroke-width:0.26458332px;stroke-linecap:butt;stroke-linejoin:miter;stroke-opacity:1" />
      <path
         sodipodi:nodetypes="ccccc"
         inkscape:connector-curvature="0"
         id="path5096"
         d="m 173.16057,129.58423 8.63085,4.581 8.90663,6.66659 -10.23504,-4.16012 z"
         style="fill:#fb986d;fill-opacity:1;stroke:#000000;stroke-width:0.26458332px;stroke-linecap:butt;stroke-linejoin:miter;stroke-opacity:1" />
      <path
         inkscape:connector-curvature="0"
         id="path5120"
         d="m 169.66603,145.27443 -0.0167,4.87767 1.45328,0.0167 0.0334,-5.02801 z"
         style="fill:#073b4c;stroke:none;stroke-width:0.26458332px;stroke-linecap:butt;stroke-linejoin:miter;stroke-opacity:1;fill-opacity:1" />
      <path
         style="fill:none;stroke:#000000;stroke-width:0.26458332px;stroke-linecap:butt;stroke-linejoin:miter;stroke-opacity:1"
         d="m 171.18549,145.09068 v 5.17835 l -2.12066,-0.0334 0.0147,-5.04471 z"
         id="path5102"
         inkscape:connector-curvature="0" />
      <path
         style="fill:none;stroke:#000000;stroke-width:0.26458332px;stroke-linecap:butt;stroke-linejoin:miter;stroke-opacity:1"
         d="m 169.60674,145.17169 -0.0155,5.07905"
         id="path5104"
         inkscape:connector-curvature="0" />
      <path
         sodipodi:nodetypes="ccccc"
         inkscape:connector-curvature="0"
         id="path5116"
         d="m 173.1798,144.94726 -0.0155,3.07453 4.56686,-0.0679 v -2.95951 z"
         style="fill:#4cc7ef;fill-opacity:1;stroke:none;stroke-width:0.26458332;stroke-linecap:butt;stroke-linejoin:miter;stroke-miterlimit:4;stroke-dasharray:none;stroke-opacity:1" />
      <path
         inkscape:connector-curvature="0"
         id="path5106"
         d="m 177.73115,144.99437 v 2.95951 l -5.12379,-0.0191 0.0355,-2.88313 z"
         style="fill:none;stroke:#000000;stroke-width:0.26458332px;stroke-linecap:butt;stroke-linejoin:miter;stroke-opacity:1" />
      <path
         style="fill:#4cc7ef;fill-opacity:1;stroke:none;stroke-width:0.26458332;stroke-linecap:butt;stroke-linejoin:miter;stroke-miterlimit:4;stroke-dasharray:none;stroke-opacity:1"
         d="m 173.19161,138.00559 -0.0155,3.07565 4.56686,-0.39862 v -2.95951 z"
         id="path5118"
         inkscape:connector-curvature="0"
         sodipodi:nodetypes="ccccc" />
      <path
         style="fill:none;stroke:#000000;stroke-width:0.26458332px;stroke-linecap:butt;stroke-linejoin:miter;stroke-opacity:1"
         d="m 177.73115,137.77369 v 2.95951 l -5.12379,0.2953 0.0355,-2.88531 z"
         id="path5108"
         inkscape:connector-curvature="0" />
      <path
         sodipodi:nodetypes="cc"
         inkscape:connector-curvature="0"
         id="path5112"
         d="m 173.1798,144.94726 -0.0155,3.07453"
         style="fill:none;stroke:#000000;stroke-width:0.26458332px;stroke-linecap:butt;stroke-linejoin:miter;stroke-opacity:1" />
      <path
         style="fill:none;stroke:#000000;stroke-width:0.26458332px;stroke-linecap:butt;stroke-linejoin:miter;stroke-opacity:1"
         d="m 173.1798,137.99825 -0.0155,3.07453"
         id="path5114"
         inkscape:connector-curvature="0"
         sodipodi:nodetypes="cc" />
      <path
         inkscape:connector-curvature="0"
         id="path5124"
         d="m 166.4421,137.70736 7.51695,-7.3165 -0.80181,-0.735 -7.98467,8.0515 z"
         style="fill:#2b0000;stroke:#000000;stroke-width:0.26458332px;stroke-linecap:butt;stroke-linejoin:miter;stroke-opacity:1;fill-opacity:1" />
    </g>
  </g>
</svg>
